<svg xmlns="http://www.w3.org/2000/svg" viewBox="0 0 24 24">
  <path fill="currentColor" d="M12 2.5c.6 0 1 .4 1 1v2.2l1.9-1.1a1 1 0 1 1 1 1.7L14 7.4l2.3 1.3h2.2a1 1 0 1 1 0 2h-2.2L14 12l2.3 1.3h2.2a1 1 0 1 1 0 2h-2.2L14 16.6l1.9 1.1a1 1 0 0 1-1 1.7L13 18.3V20.5a1 1 0 1 1-2 0v-2.2l-1.9 1.1a1 1 0 1 1-1-1.7L10 16.6 7.7 15.3H5.5a1 1 0 1 1 0-2h2.2L10 12 7.7 10.7H5.5a1 1 0 1 1 0-2h2.2L10 7.4 8.1 6.3a1 1 0 1 1 1-1.7L11 5.7V3.5c0-.6.4-1 1-1Z"/>
  <circle cx="12" cy="12" r="2.3" fill="currentColor" opacity="0.35"/>
</svg>
